HIERARCHY
ROOT Hips
{
	OFFSET 0.000000 83.214638 0.000000
	CHANNELS 6 Xposition Yposition Zposition Xrotation Yrotation Zrotation
	JOINT Pelvis
	{
		OFFSET 0.000000 0.000000 0.000000
		CHANNELS 3 Xrotation Yrotation Zrotation
		JOINT LeftUpLeg
		{
			OFFSET 8.479700 -4.795502 -0.379100
			CHANNELS 3 Xrotation Yrotation Zrotation
			JOINT LeftLeg
			{
				OFFSET 0.024144 -32.555107 0.112900
				CHANNELS 3 Xrotation Yrotation Zrotation
				JOINT LeftFoot
				{
					OFFSET -0.024144 -32.638630 -3.012600
					CHANNELS 3 Xrotation Yrotation Zrotation
					JOINT LeftToeBase
					{
						OFFSET 0.970200 -13.225400 11.864200
						CHANNELS 3 Xrotation Yrotation Zrotation
						End Site
						{
							OFFSET 0.000000 12.319262 0.000000
						}
					}
					JOINT LFootTongue
					{
						OFFSET 1.142400 -1.059800 6.665200
						CHANNELS 3 Xrotation Yrotation Zrotation
						End Site
						{
							OFFSET 0.000000 12.319262 0.000000
						}
					}
				}
				JOINT LeftPantLeg
				{
					OFFSET 0.918482 -16.533964 -2.284700
					CHANNELS 3 Xrotation Yrotation Zrotation
					End Site
					{
						OFFSET 0.350399 24.744368 0.000000
					}
				}
			}
		}
		JOINT RightUpLeg
		{
			OFFSET -8.479700 -4.795502 -0.379100
			CHANNELS 3 Xrotation Yrotation Zrotation
			JOINT RightLeg
			{
				OFFSET -0.023144 -32.555092 0.112900
				CHANNELS 3 Xrotation Yrotation Zrotation
				JOINT RightFoot
				{
					OFFSET 0.023144 -32.638641 -3.012700
					CHANNELS 3 Xrotation Yrotation Zrotation
					JOINT RightToeBase
					{
						OFFSET -0.970200 -13.225400 11.864200
						CHANNELS 3 Xrotation Yrotation Zrotation
						End Site
						{
							OFFSET 0.000000 12.319244 0.000000
						}
					}
					JOINT RFootTongue
					{
						OFFSET -1.142200 -1.059800 6.665200
						CHANNELS 3 Xrotation Yrotation Zrotation
						End Site
						{
							OFFSET 0.000000 12.319243 0.000000
						}
					}
				}
				JOINT RightPantLeg
				{
					OFFSET -0.919482 -16.533978 -2.284800
					CHANNELS 3 Xrotation Yrotation Zrotation
					End Site
					{
						OFFSET -0.350400 24.744419 0.000000
					}
				}
			}
		}
	}
	JOINT Spine
	{
		OFFSET 0.000000 7.722000 1.166200
		CHANNELS 3 Xrotation Yrotation Zrotation
		JOINT Spine1
		{
			OFFSET 0.000000 12.024101 0.248800
			CHANNELS 3 Xrotation Yrotation Zrotation
			JOINT Spine2
			{
				OFFSET 0.000000 11.502998 -0.491200
				CHANNELS 3 Xrotation Yrotation Zrotation
				JOINT Neck
				{
					OFFSET 0.000000 18.430702 -3.123100
					CHANNELS 3 Xrotation Yrotation Zrotation
					JOINT Head
					{
						OFFSET 0.000000 9.051102 1.034000
						CHANNELS 3 Xrotation Yrotation Zrotation
						JOINT HairB
						{
							OFFSET 0.208400 24.786102 24.822300
							CHANNELS 3 Xrotation Yrotation Zrotation
							End Site
							{
								OFFSET 0.000000 32.263779 0.000000
							}
						}
						JOINT HairA
						{
							OFFSET -7.081100 24.428299 23.196600
							CHANNELS 3 Xrotation Yrotation Zrotation
							End Site
							{
								OFFSET 0.000000 32.263779 0.000000
							}
						}
						JOINT Hat
						{
							OFFSET 16.728800 15.048294 -15.439601
							CHANNELS 3 Xrotation Yrotation Zrotation
							End Site
							{
								OFFSET 0.000000 32.263779 0.000000
							}
						}
					}
				}
				JOINT LeftShoulder
				{
					OFFSET 6.197800 13.665199 -4.064700
					CHANNELS 3 Xrotation Yrotation Zrotation
					JOINT LeftArm
					{
						OFFSET 7.778100 -0.187103 -1.709300
						CHANNELS 3 Xrotation Yrotation Zrotation
						JOINT LeftForeArm
						{
							OFFSET 22.049376 0.000000 0.000000
							CHANNELS 3 Xrotation Yrotation Zrotation
							JOINT LeftHand
							{
								OFFSET 23.009392 0.000000 0.000000
								CHANNELS 3 Xrotation Yrotation Zrotation
								JOINT LeftHandThumb1
								{
									OFFSET 3.507191 -2.063065 3.133727
									CHANNELS 3 Xrotation Yrotation Zrotation
									JOINT LeftHandThumb2
									{
										OFFSET 3.101337 -1.790558 1.790558
										CHANNELS 3 Xrotation Yrotation Zrotation
										JOINT LeftHandThumb3
										{
											OFFSET 3.058640 -1.765907 1.765906
											CHANNELS 3 Xrotation Yrotation Zrotation
											End Site
											{
												OFFSET -0.415260 3.926476 -0.049563
											}
										}
									}
								}
								JOINT LeftHandIndex1
								{
									OFFSET 11.334419 -0.901459 3.706815
									CHANNELS 3 Xrotation Yrotation Zrotation
									JOINT LeftHandIndex2
									{
										OFFSET 3.283112 0.000000 0.000000
										CHANNELS 3 Xrotation Yrotation Zrotation
										JOINT LeftHandIndex3
										{
											OFFSET 3.323853 0.000000 0.000000
											CHANNELS 3 Xrotation Yrotation Zrotation
											End Site
											{
												OFFSET -1.135597 3.097809 0.402452
											}
										}
									}
								}
								JOINT LeftHandMiddle1
								{
									OFFSET 11.335861 0.000000 0.000000
									CHANNELS 3 Xrotation Yrotation Zrotation
									JOINT LeftHandMiddle2
									{
										OFFSET 3.410492 0.000000 0.000000
										CHANNELS 3 Xrotation Yrotation Zrotation
										JOINT LeftHandMiddle3
										{
											OFFSET 3.312172 0.000000 0.000000
											CHANNELS 3 Xrotation Yrotation Zrotation
											End Site
											{
												OFFSET -1.150200 3.080154 0.400270
											}
										}
									}
								}
								JOINT LeftHandRing1
								{
									OFFSET 11.514786 -0.013176 -3.003090
									CHANNELS 3 Xrotation Yrotation Zrotation
									JOINT LeftHandRing2
									{
										OFFSET 3.053307 0.000000 0.000000
										CHANNELS 3 Xrotation Yrotation Zrotation
										JOINT LeftHandRing3
										{
											OFFSET 3.295807 0.000000 0.000000
											CHANNELS 3 Xrotation Yrotation Zrotation
											End Site
											{
												OFFSET -1.281006 3.013344 0.375733
											}
										}
									}
								}
								JOINT LeftHandPinky1
								{
									OFFSET 10.518692 -0.960396 -5.730441
									CHANNELS 3 Xrotation Yrotation Zrotation
									JOINT LeftHandPinky2
									{
										OFFSET 2.861649 0.000000 0.000000
										CHANNELS 3 Xrotation Yrotation Zrotation
										JOINT LeftHandPinky3
										{
											OFFSET 2.863380 0.000000 0.000000
											CHANNELS 3 Xrotation Yrotation Zrotation
											End Site
											{
												OFFSET -0.843597 2.711159 0.369971
											}
										}
									}
								}
							}
							JOINT LSleeve
							{
								OFFSET 6.676277 -0.344902 -1.011730
								CHANNELS 3 Xrotation Yrotation Zrotation
								End Site
								{
									OFFSET 0.000000 14.885353 0.000000
								}
							}
						}
					}
				}
				JOINT RightShoulder
				{
					OFFSET -6.197800 13.665199 -4.064700
					CHANNELS 3 Xrotation Yrotation Zrotation
					JOINT RightArm
					{
						OFFSET -7.778100 -0.187103 -1.709300
						CHANNELS 3 Xrotation Yrotation Zrotation
						JOINT RightForeArm
						{
							OFFSET -22.049376 0.000000 0.000000
							CHANNELS 3 Xrotation Yrotation Zrotation
							JOINT RightHand
							{
								OFFSET -23.009392 0.000000 0.000000
								CHANNELS 3 Xrotation Yrotation Zrotation
								JOINT RightHandThumb1
								{
									OFFSET -3.507191 -2.063065 3.133727
									CHANNELS 3 Xrotation Yrotation Zrotation
									JOINT RightHandThumb2
									{
										OFFSET -3.101337 -1.790558 1.790558
										CHANNELS 3 Xrotation Yrotation Zrotation
										JOINT RightHandThumb3
										{
											OFFSET -3.058640 -1.765907 1.765906
											CHANNELS 3 Xrotation Yrotation Zrotation
											End Site
											{
												OFFSET 0.415260 3.926476 -0.049563
											}
										}
									}
								}
								JOINT RightHandIndex1
								{
									OFFSET -11.334419 -0.901459 3.706815
									CHANNELS 3 Xrotation Yrotation Zrotation
									JOINT RightHandIndex2
									{
										OFFSET -3.283112 0.000000 0.000000
										CHANNELS 3 Xrotation Yrotation Zrotation
										JOINT RightHandIndex3
										{
											OFFSET -3.323853 0.000000 0.000000
											CHANNELS 3 Xrotation Yrotation Zrotation
											End Site
											{
												OFFSET 1.135597 3.097809 0.402452
											}
										}
									}
								}
								JOINT RightHandMiddle1
								{
									OFFSET -11.335861 0.000000 0.000000
									CHANNELS 3 Xrotation Yrotation Zrotation
									JOINT RightHandMiddle2
									{
										OFFSET -3.410492 0.000000 0.000000
										CHANNELS 3 Xrotation Yrotation Zrotation
										JOINT RightHandMiddle3
										{
											OFFSET -3.312172 0.000000 0.000000
											CHANNELS 3 Xrotation Yrotation Zrotation
											End Site
											{
												OFFSET 1.150200 3.080154 0.400270
											}
										}
									}
								}
								JOINT RightHandRing1
								{
									OFFSET -11.514786 -0.013176 -3.003090
									CHANNELS 3 Xrotation Yrotation Zrotation
									JOINT RightHandRing2
									{
										OFFSET -3.053307 0.000000 0.000000
										CHANNELS 3 Xrotation Yrotation Zrotation
										JOINT RightHandRing3
										{
											OFFSET -3.295807 0.000000 0.000000
											CHANNELS 3 Xrotation Yrotation Zrotation
											End Site
											{
												OFFSET 1.281006 3.013344 0.375733
											}
										}
									}
								}
								JOINT RightHandPinky1
								{
									OFFSET -10.518692 -0.960396 -5.730441
									CHANNELS 3 Xrotation Yrotation Zrotation
									JOINT RightHandPinky2
									{
										OFFSET -2.861649 0.000000 0.000000
										CHANNELS 3 Xrotation Yrotation Zrotation
										JOINT RightHandPinky3
										{
											OFFSET -2.863380 0.000000 0.000000
											CHANNELS 3 Xrotation Yrotation Zrotation
											End Site
											{
												OFFSET 0.843597 2.711159 0.369971
											}
										}
									}
								}
							}
							JOINT RSleeve
							{
								OFFSET -6.676277 -0.344902 -1.011730
								CHANNELS 3 Xrotation Yrotation Zrotation
								End Site
								{
									OFFSET 0.000000 14.885353 0.000000
								}
							}
						}
					}
				}
				JOINT Backpack
				{
					OFFSET 0.000000 -2.471497 36.677502
					CHANNELS 3 Xrotation Yrotation Zrotation
					End Site
					{
						OFFSET 0.000000 20.427315 0.000000
					}
				}
				JOINT Hood
				{
					OFFSET 0.000000 18.754097 -10.431000
					CHANNELS 3 Xrotation Yrotation Zrotation
					JOINT Hood1
					{
						OFFSET 0.000000 -5.011002 -7.685901
						CHANNELS 3 Xrotation Yrotation Zrotation
						End Site
						{
							OFFSET 0.000000 9.175140 0.000000
						}
					}
				}
				JOINT LHoodieString
				{
					OFFSET 5.250500 16.397697 3.089900
					CHANNELS 3 Xrotation Yrotation Zrotation
					JOINT LHoodieString1
					{
						OFFSET 0.257700 -6.364304 3.694600
						CHANNELS 3 Xrotation Yrotation Zrotation
						JOINT LHoodieString2
						{
							OFFSET 0.000000 -9.643799 2.679100
							CHANNELS 3 Xrotation Yrotation Zrotation
							End Site
							{
								OFFSET 0.000000 10.009018 0.000000
							}
						}
					}
				}
				JOINT RHoodieString
				{
					OFFSET -5.250500 16.397697 3.089900
					CHANNELS 3 Xrotation Yrotation Zrotation
					JOINT RHoodieString1
					{
						OFFSET -0.257700 -6.364304 3.694600
						CHANNELS 3 Xrotation Yrotation Zrotation
						JOINT RHoodieString2
						{
							OFFSET 0.000000 -9.643799 2.679100
							CHANNELS 3 Xrotation Yrotation Zrotation
							End Site
							{
								OFFSET 0.000000 10.009018 0.000000
							}
						}
					}
				}
			}
			JOINT LBackpack_Strap
			{
				OFFSET 15.223200 -7.719803 -6.610900
				CHANNELS 3 Xrotation Yrotation Zrotation
				End Site
				{
					OFFSET 0.000000 16.040596 0.000000
				}
			}
			JOINT RBackpack_Strap
			{
				OFFSET -15.223000 -7.719803 -6.610900
				CHANNELS 3 Xrotation Yrotation Zrotation
				End Site
				{
					OFFSET 0.000000 16.040596 0.000000
				}
			}
		}
	}
	JOINT BoyFacialAnim_Joint
	{
		OFFSET 1.000000 -82.208099 -1.550900
		CHANNELS 3 Xrotation Yrotation Zrotation
		End Site
		{
			OFFSET 0.000000 30.012791 0.000000
		}
	}
}
MOTION
Frames: 4
Frame Time: 0.016667
8.683934 157.969193 54.689770 6.083544 18.643462 -0.034229 -0.000000 0.000000 -0.000000 -38.679221 21.719993 10.458561 58.960426 -3.260644 -0.158947 8.696293 -0.989372 -12.316515 -0.000002 0.000001 -0.000000 -0.000002 0.000001 -0.000000 -0.000000 0.000000 -0.000000 -48.753866 1.866604 -19.779821 23.003556 8.916219 1.061098 12.841460 18.937149 24.056550 0.000000 0.000000 -0.000000 0.000000 0.000000 -0.000000 -0.000002 0.000002 0.000000 7.319708 -1.939880 -4.342932 14.411474 -2.597693 1.282298 14.393223 -2.607810 1.534272 -3.431898 0.659723 -7.971159 -4.476607 -10.464172 13.497320 0.000000 -0.000000 0.000000 0.000000 -0.000000 0.000000 0.000000 -0.000000 0.000000 -1.645773 11.892280 6.117614 -105.464391 -55.286628 -116.659044 -0.068720 -92.899063 -0.068528 -8.263621 -7.356837 2.186915 -3.500404 23.141892 9.972913 -2.408864 12.775506 10.381911 0.000000 0.000000 0.000001 0.080929 1.054717 -8.775057 0.139280 1.380641 -11.520114 -0.000005 -0.000001 -0.000004 0.080631 1.052816 -8.759071 0.139656 1.382529 -11.536112 0.000003 -0.000000 0.000000 0.080930 1.054719 -8.775058 0.139270 1.380639 -11.520112 -0.000000 -0.000001 -0.000001 0.683457 5.064143 -8.296807 0.133617 -2.674905 -12.020594 -0.000000 0.000001 -0.000002 0.000001 -0.000001 0.000002 2.075053 14.947587 1.840489 -36.947294 40.337550 63.095020 -0.000015 48.043834 0.000017 31.938934 2.596830 0.748844 -7.605208 -2.521702 -16.077622 4.602800 -15.232223 -8.617242 0.000002 0.000000 -0.000002 0.672573 -2.988290 25.363199 0.151863 -1.448123 11.972220 0.000001 -0.000001 0.000003 0.672571 -2.988288 25.363206 0.151856 -1.448120 11.972210 0.000001 0.000001 0.000000 0.672575 -2.988282 25.363201 0.151855 -1.448130 11.972225 -0.000001 0.000001 0.000002 0.672572 -2.988279 25.363192 0.151860 -1.448133 11.972215 0.000000 0.000000 0.000000 0.000002 -0.000002 -0.000000 -0.000000 -0.000001 -0.000000 -0.000000 -0.000001 -0.000000 -0.000000 -0.000001 -0.000000 -0.000000 -0.000001 -0.000000 -0.000000 -0.000001 -0.000000 0.000001 0.000000 0.000000 -0.000000 -0.000001 -0.000000 -0.000000 -0.000001 -0.000000 0.000001 0.000000 0.000000 -0.000001 -0.000000 -0.000000 -0.000001 -0.000000 -0.000000 -0.000000 0.000000 -0.000000 
8.785227 155.635544 56.838425 5.020430 18.447291 0.456378 -0.000000 -0.000001 -0.000000 -37.702248 21.693535 10.119302 57.742167 -2.550728 -0.124317 9.864875 -1.280026 -12.325165 -0.000001 0.000001 -0.000000 -0.000001 0.000001 -0.000000 0.000002 -0.000002 0.000002 -46.854370 1.361366 -19.740311 22.850435 8.505050 1.097864 14.278350 19.850015 23.147293 -0.000000 0.000004 -0.000000 -0.000000 0.000004 -0.000000 -0.000001 -0.000001 -0.000001 7.360081 -1.797308 -4.368062 14.383883 -2.380557 1.213552 14.364175 -2.405682 1.448314 -3.302215 0.547484 -7.776379 -3.709840 -10.667863 13.127590 -0.000000 0.000000 -0.000000 -0.000000 0.000000 -0.000000 -0.000000 0.000000 -0.000000 -1.522745 11.317943 5.579476 -102.529383 -55.782992 -113.588771 -0.013344 -91.991897 -0.013313 -9.879215 -6.284509 1.313726 -3.500371 23.141775 9.972887 -2.408835 12.775488 10.381834 0.000000 0.000000 -0.000001 0.080925 1.054717 -8.774992 0.139285 1.380621 -11.520017 -0.000002 -0.000001 -0.000002 0.080634 1.052811 -8.759008 0.139660 1.382512 -11.536023 -0.000003 -0.000002 -0.000004 0.080942 1.054707 -8.774978 0.139253 1.380631 -11.520050 0.000002 -0.000001 -0.000002 0.683438 5.064138 -8.296722 0.133611 -2.674906 -12.020530 0.000002 -0.000000 -0.000000 0.000001 0.000002 0.000003 2.084718 14.908505 1.923964 -37.666116 40.172584 63.297733 0.000025 48.302668 -0.000035 32.519422 2.624572 1.993028 -7.604272 -2.522130 -16.076186 4.602800 -15.232160 -8.617172 -0.000001 0.000001 -0.000003 0.672570 -2.988260 25.363016 0.151850 -1.448102 11.972134 -0.000001 0.000003 0.000004 0.672558 -2.988257 25.363018 0.151851 -1.448110 11.972147 -0.000001 0.000003 -0.000001 0.672564 -2.988252 25.363021 0.151844 -1.448101 11.972131 0.000001 -0.000002 0.000000 0.672563 -2.988241 25.363014 0.151855 -1.448114 11.972126 -0.000000 0.000003 0.000001 0.000001 -0.000001 -0.000001 0.000006 -0.000000 0.000000 0.000006 -0.000000 0.000000 0.000006 -0.000000 0.000000 0.000006 -0.000000 0.000000 0.000006 -0.000000 -0.000000 0.000001 0.000000 -0.000001 0.000006 -0.000000 0.000000 0.000006 -0.000000 -0.000000 0.000001 0.000000 -0.000001 -0.000000 -0.000001 0.000001 -0.000000 -0.000001 0.000001 -0.000000 -0.000001 -0.000000 
8.886986 153.095367 59.010704 3.933257 18.126530 0.932504 -0.000000 0.000001 -0.000000 -36.470615 21.531768 9.794475 56.248394 -2.338907 -0.112479 10.756694 -1.527367 -12.740573 -0.000000 0.000000 0.000001 -0.000000 0.000000 0.000001 0.000002 0.000000 0.000000 -44.922670 0.736563 -19.558807 22.815791 8.165990 1.116715 15.658321 20.226960 22.009482 0.000000 -0.000000 -0.000000 0.000000 -0.000000 -0.000000 -0.000001 0.000001 -0.000000 7.388360 -1.640792 -4.375098 14.331757 -2.196025 1.072490 14.312128 -2.231722 1.291072 -3.139350 0.436490 -7.492979 -2.915434 -10.754763 12.844839 -0.000001 -0.000000 0.000000 -0.000001 -0.000000 0.000000 -0.000001 -0.000000 0.000000 -1.447303 10.959920 5.211208 -99.827723 -56.207211 -110.766742 -0.009315 -90.695910 -0.009419 -11.177057 -5.296989 0.456592 -3.500337 23.141571 9.972823 -2.408752 12.775441 10.381733 -0.000001 0.000002 0.000003 0.080925 1.054703 -8.774911 0.139271 1.380610 -11.519912 -0.000000 0.000000 -0.000002 0.080634 1.052796 -8.758913 0.139641 1.382507 -11.535910 0.000003 -0.000001 -0.000000 0.080928 1.054703 -8.774904 0.139263 1.380609 -11.519931 -0.000003 0.000000 -0.000000 0.683432 5.064131 -8.296650 0.133618 -2.674931 -12.020411 -0.000000 0.000003 0.000004 -0.000002 -0.000000 0.000002 2.080138 14.739080 2.062844 -38.227824 39.650959 63.883688 0.000009 49.554395 -0.000014 33.231794 2.131653 3.145249 -7.602982 -2.522645 -16.074145 4.602796 -15.232078 -8.617077 0.000001 -0.000000 -0.000001 0.672540 -2.988225 25.362750 0.151873 -1.448103 11.971991 -0.000002 0.000000 0.000004 0.672555 -2.988239 25.362760 0.151860 -1.448080 11.971994 0.000001 0.000002 0.000002 0.672544 -2.988221 25.362767 0.151866 -1.448094 11.971988 -0.000004 0.000003 0.000001 0.672549 -2.988224 25.362753 0.151862 -1.448093 11.971978 0.000001 0.000001 -0.000001 0.000001 -0.000001 0.000002 0.000001 -0.000001 0.000000 0.000001 -0.000001 0.000000 0.000001 -0.000001 0.000000 0.000001 -0.000001 0.000000 0.000001 -0.000001 -0.000000 -0.000001 0.000000 -0.000001 0.000001 -0.000001 0.000000 0.000001 -0.000001 -0.000000 -0.000001 0.000000 -0.000001 0.000001 -0.000002 0.000000 0.000001 -0.000002 0.000000 -0.000000 0.000001 -0.000000 
8.990193 150.356384 61.194721 2.861186 17.729896 1.364350 0.000000 0.000002 -0.000000 -35.058012 21.264886 9.457743 54.451334 -2.455602 -0.115795 11.428217 -1.741664 -13.455848 -0.000001 -0.000001 -0.000000 -0.000001 -0.000001 -0.000000 -0.000000 0.000002 -0.000000 -42.958266 0.000548 -19.273103 22.842502 7.879416 1.115570 16.977156 20.081815 20.761769 -0.000000 -0.000001 -0.000000 -0.000000 -0.000001 -0.000000 -0.000001 -0.000002 -0.000000 7.397899 -1.476547 -4.350016 14.253389 -2.029490 0.889713 14.234356 -2.070373 1.095189 -2.973546 0.335320 -7.170157 -2.167500 -10.752427 12.661431 0.000001 0.000000 -0.000000 0.000001 0.000000 -0.000000 0.000001 0.000000 -0.000000 -1.416789 10.842150 5.015825 -97.509270 -56.558498 -108.357912 0.000524 -89.117890 0.000250 -12.155369 -4.424787 -0.433198 -3.500289 23.141371 9.972775 -2.408700 12.775390 10.381614 -0.000000 -0.000001 -0.000000 0.080928 1.054703 -8.774811 0.139265 1.380591 -11.519802 -0.000001 -0.000001 -0.000004 0.080630 1.052794 -8.758818 0.139635 1.382489 -11.535801 0.000002 -0.000003 0.000005 0.080929 1.054694 -8.774810 0.139263 1.380591 -11.519807 0.000000 -0.000001 -0.000001 0.683418 5.064123 -8.296558 0.133620 -2.674940 -12.020281 -0.000001 0.000001 -0.000000 0.000001 0.000000 -0.000002 2.065515 14.495181 2.197897 -38.516410 38.803934 64.754947 0.000008 51.747070 -0.000005 34.057594 1.236705 4.088629 -7.601776 -2.522970 -16.072115 4.602809 -15.232029 -8.617003 0.000001 0.000001 -0.000003 0.672548 -2.988202 25.362504 0.151835 -1.448090 11.971886 0.000001 -0.000002 0.000005 0.672536 -2.988201 25.362516 0.151836 -1.448098 11.971880 -0.000001 0.000000 -0.000000 0.672546 -2.988191 25.362507 0.151828 -1.448089 11.971893 -0.000004 -0.000002 0.000002 0.672539 -2.988183 25.362499 0.151841 -1.448098 11.971886 -0.000001 -0.000001 0.000000 0.000003 -0.000001 -0.000004 0.000003 0.000001 0.000000 0.000003 0.000001 0.000000 0.000003 0.000001 0.000000 0.000003 0.000001 0.000000 0.000003 0.000001 0.000000 -0.000002 0.000000 -0.000000 0.000003 0.000001 0.000000 0.000003 0.000001 0.000000 -0.000002 0.000000 -0.000000 -0.000000 -0.000000 0.000000 -0.000000 -0.000000 0.000000 0.000000 0.000002 -0.000000 
